<svg id="Layer_1" data-name="Layer 1" xmlns="http://www.w3.org/2000/svg" viewBox="0 0 413.54615 454.2656"><defs><style>.cls-1{fill:#620056;}</style></defs><path class="cls-1" d="M106.20891,169.85035H413.54615a0,0,0,0,1,0,0v.00011A106.20892,106.20892,0,0,1,307.33723,276.05937H0a0,0,0,0,1,0,0v-.00011A106.20891,106.20891,0,0,1,106.20891,169.85035Z"/><path class="cls-1" d="M128.48114,0h178.8561A106.20892,106.20892,0,0,1,413.54615,106.20892v.00011a0,0,0,0,1,0,0h-285.065a0,0,0,0,1,0,0V0A0,0,0,0,1,128.48114,0Z"/><path class="cls-1" d="M128.48114,348.05658H271.01364a0,0,0,0,1,0,0v.00011A106.20892,106.20892,0,0,1,164.80473,454.2656H128.48114a0,0,0,0,1,0,0v-106.209A0,0,0,0,1,128.48114,348.05658Z"/></svg>