<svg id="Layer_1" data-name="Layer 1" xmlns="http://www.w3.org/2000/svg" viewBox="0 0 1297.38463 1483.7003"><defs><style>.cls-1{fill:#1e70ec;}</style></defs><path class="cls-1" d="M1698.69232,721.94679v641.74165a92.94361,92.94361,0,0,1-46.46321,80.47758l-602.24157,347.68413V1414.1841l321.63468-185.677v-371.379l-321.63468-185.677-321.60976,185.677v749.045L447.77074,1444.166a92.94379,92.94379,0,0,1-46.46306-80.47758V721.94679a92.9134,92.9134,0,0,1,46.46306-80.47758l555.75359-320.88329a93.01488,93.01488,0,0,1,92.92626,0l555.77852,320.88329A92.91323,92.91323,0,0,1,1698.69232,721.94679Z" transform="translate(-401.30768 -308.14985)"/><polygon class="cls-1" points="757.151 804.469 757.151 679.231 648.692 616.613 540.234 679.231 540.234 804.469 648.692 867.088 757.151 804.469"/></svg>