<svg id="Layer_1" data-name="Layer 1" xmlns="http://www.w3.org/2000/svg" viewBox="0 0 1211.16103 459.30031"><defs><style>.cls-1{fill:#620056;}</style></defs><path class="cls-1" d="M188.08707,0a97.92054,97.92054,0,0,0-97.9226,97.9226v79.94125a199.44836,199.44836,0,0,0,27.0197,2.15775h4.93947a200.19231,200.19231,0,0,0,27.54829-2.23577V102.83605a43.32775,43.32775,0,0,1,43.32859-43.32858H314.26857v100.973A43.33331,43.33331,0,0,1,270.94,203.809H90.16447V369.20287a97.9474,97.9474,0,0,0,59.50746,90.09744V263.31647h126.1815a97.92058,97.92058,0,0,0,97.9226-97.9226V0Z"/><rect class="cls-1" y="203.80888" width="201.12435" height="59.50747"/><path class="cls-1" d="M269.4225,103.56394a413.66989,413.66989,0,0,0-111.64907,14.92889q-4.00431,1.12211-8.1015,2.01263a140.96579,140.96579,0,0,1-30.018,3.20627,141.55,141.55,0,0,1-25.85061-2.36835,3.08183,3.08183,0,0,0-3.6388,3.03639v50.79355a3.09235,3.09235,0,0,0,2.66293,3.06959,200.0005,200.0005,0,0,0,24.35677,1.77869c.82325.00868,1.64651.0173,2.46971.0173.82325,0,1.6465-.00862,2.46976-.0173a200.19231,200.19231,0,0,0,27.54829-2.23577A196.23419,196.23419,0,0,0,259.49255,122.1086q6.49848-6.49842,12.32069-13.48695a3.0922,3.0922,0,0,0-2.39065-5.05771Z"/><path class="cls-1" d="M458.4247,250.52125v32.63183h-27.124V185.66969h40.48047q17.62208,0,26.918,8.88086,9.29443,8.88134,9.29395,23.75146a32.94626,32.94626,0,0,1-4.13086,16.523A28.80357,28.80357,0,0,1,491.539,246.32105q-8.19288,4.20264-19.75782,4.2002Zm22.168-32.21924q0-10.73951-11.84082-10.73975H458.4247v21.61719h10.32715Q480.59218,229.17945,480.59267,218.302Z"/><path class="cls-1" d="M561.3456,208.45728a21.63018,21.63018,0,0,1,8.88086,9.707V205.90992h26.9873v77.24316h-26.9873v-12.2539a21.63013,21.63013,0,0,1-8.88086,9.707,27.4073,27.4073,0,0,1-14.11329,3.51074,30.28917,30.28917,0,0,1-16.66015-4.75A32.13432,32.13432,0,0,1,518.869,265.5984q-4.27-9.01758-4.26855-21.13575,0-12.11425,4.26855-21.06591a32.21175,32.21175,0,0,1,11.70313-13.7002,30.28957,30.28957,0,0,1,16.66015-4.75049A27.40748,27.40748,0,0,1,561.3456,208.45728Zm-15.4209,24.37061q-3.92431,4.20117-3.92383,11.63476,0,7.57472,3.92383,11.77247a13.38408,13.38408,0,0,0,10.25781,4.19921,13.18058,13.18058,0,0,0,10.05078-4.26757q3.99316-4.26709,3.99317-11.70411,0-7.29638-3.99317-11.56542a13.18653,13.18653,0,0,0-10.05078-4.26856A13.39093,13.39093,0,0,0,545.9247,232.82789Z"/><path class="cls-1" d="M633.97548,205.90992l16.52246,43.23438,15.2832-43.23438h30.0166L646.91786,320.05348H617.17665l18.86426-40.20508-32.21973-73.93848Z"/><path class="cls-1" d="M805.122,187.45973v95.69335H789.288V211.41773L761.6122,283.15308H747.84364l-27.81347-71.73535v71.73535H704.33388V187.45973h19.001l31.668,76.417,31.11817-76.417Z"/><path class="cls-1" d="M832.93349,207.28687l22.71875,55.76368,21.0664-55.76368H894.205L848.35438,319.2273H830.86806l16.38476-37.86425-31.94336-74.07618Z"/><path class="cls-1" d="M1005.31923,187.45973v95.69335h-15.834V211.41773l-27.67578,71.73535H948.04091l-27.81348-71.73535v71.73535H904.53114V187.45973h19.001l31.668,76.417,31.11816-76.417Z"/><path class="cls-1" d="M1097.29384,194.06861q11.84032,9.0879,15.97168,24.64649h-16.66016a29.61643,29.61643,0,0,0-10.94629-13.97559q-7.50585-5.16284-18.38086-5.16309a28.58818,28.58818,0,0,0-15.49023,4.26807A29.3579,29.3579,0,0,0,1041.04774,216.03a45.33868,45.33868,0,0,0,0,36.90039A29.32788,29.32788,0,0,0,1051.788,265.116a28.56343,28.56343,0,0,0,15.49023,4.26855q10.875,0,18.38086-5.16309a29.6928,29.6928,0,0,0,10.94629-13.83789h16.66016q-4.12939,15.561-15.97168,24.57715-11.84327,9.01905-29.74024,9.01856a46.9789,46.9789,0,0,1-24.37109-6.26465,42.41977,42.41977,0,0,1-16.38574-17.48633,59.91139,59.91139,0,0,1,0-51.35791,42.89949,42.89949,0,0,1,16.38574-17.55518,46.60534,46.60534,0,0,1,24.37109-6.334Q1085.4496,184.98121,1097.29384,194.06861Z"/><path class="cls-1" d="M1186.92763,262.08668h-41.03125l-7.43555,21.0664H1121.663l35.79883-95.69335h18.03711l35.66211,95.69335H1194.3622Zm-4.40625-12.11621L1166.412,204.533l-16.10937,45.4375Z"/></svg>