<svg id="Layer_1" data-name="Layer 1" xmlns="http://www.w3.org/2000/svg" viewBox="0 0 1860.19395 454.2656"><defs><style>.cls-1{fill:#620056;}</style></defs><path class="cls-1" d="M106.20892,169.85035H413.54615a0,0,0,0,1,0,0v.00011A106.20892,106.20892,0,0,1,307.33723,276.05937H0a0,0,0,0,1,0,0v-.00011A106.20892,106.20892,0,0,1,106.20892,169.85035Z"/><path class="cls-1" d="M128.48114,0h178.8561A106.20892,106.20892,0,0,1,413.54615,106.20892v.00011a0,0,0,0,1,0,0h-285.065a0,0,0,0,1,0,0V0A0,0,0,0,1,128.48114,0Z"/><path class="cls-1" d="M128.48114,348.05658H271.01364a0,0,0,0,1,0,0v.00011A106.20892,106.20892,0,0,1,164.80473,454.2656H128.48114a0,0,0,0,1,0,0v-106.209A0,0,0,0,1,128.48114,348.05658Z"/><path class="cls-1" d="M602.41016,576.82422v55.74219h-46.334V466.04688h69.14795q30.10328,0,45.981,15.16992,15.876,15.17066,15.876,40.57177a56.27136,56.27136,0,0,1-7.05615,28.22315q-7.05542,12.46875-21.0498,19.63965-13.99659,7.17627-33.751,7.17285Zm37.8667-55.03565q0-18.34569-20.22706-18.3457H602.41016v36.92627H620.0498Q640.2749,540.36914,640.27686,521.78857Z" transform="translate(-28.02285 -302.31555)"/><path class="cls-1" d="M778.21729,504.97168a36.95,36.95,0,0,1,15.16992,16.58154V500.62061h46.09912v131.9458H793.38721V611.63379a36.94631,36.94631,0,0,1-15.16992,16.58105q-10.23122,5.99855-24.10791,5.99805a51.74483,51.74483,0,0,1-28.459-8.11426q-12.7002-8.11522-19.9917-23.51953-7.29272-15.40283-7.291-36.10351,0-20.69385,7.291-35.98487,7.2876-15.28564,19.9917-23.40185a51.74118,51.74118,0,0,1,28.459-8.11475Q767.98438,498.97412,778.21729,504.97168ZM751.875,546.60156q-6.70312,7.17774-6.70312,19.874,0,12.9375,6.70312,20.10937,6.70313,7.17774,17.52246,7.17383a22.514,22.514,0,0,0,17.16943-7.291q6.81885-7.28759,6.82032-19.99218,0-12.4629-6.82032-19.75684a22.53067,22.53067,0,0,0-17.16943-7.29053Q758.57666,539.42822,751.875,546.60156Z" transform="translate(-28.02285 -302.31555)"/><path class="cls-1" d="M902.28027,500.62061l28.22364,73.85205,26.10693-73.85205h51.27295l-83.49512,194.979H873.58594l32.22217-68.67773L850.772,500.62061Z" transform="translate(-28.02285 -302.31555)"/><path class="cls-1" d="M1194.62988,469.10449V632.56641H1167.583V510.02881l-47.27539,122.5376h-23.51953l-47.50977-122.5376v122.5376h-26.8125V469.10449h32.457l54.0957,130.53418,53.1543-130.53418Z" transform="translate(-28.02285 -302.31555)"/><path class="cls-1" d="M1242.1377,502.97266l38.80761,95.25488,35.98535-95.25488h29.87012l-78.32129,191.21582h-29.87011l27.98828-64.67969-54.56543-126.53613Z" transform="translate(-28.02285 -302.31555)"/><path class="cls-1" d="M1536.60254,469.10449V632.56641h-27.04688V510.02881l-47.27539,122.5376h-23.51953L1391.251,510.02881v122.5376h-26.8125V469.10449h32.457l54.0957,130.53418,53.1543-130.53418Z" transform="translate(-28.02285 -302.31555)"/><path class="cls-1" d="M1693.71191,480.39355q20.2251,15.523,27.28321,42.10059h-28.459a50.59211,50.59211,0,0,0-18.69824-23.87256q-12.82177-8.81982-31.39844-8.81982a48.82634,48.82634,0,0,0-26.46,7.291,50.14156,50.14156,0,0,0-18.3457,20.81494q-6.70312,13.52784-6.70313,31.63428,0,17.87548,6.70313,31.39844a50.09788,50.09788,0,0,0,18.3457,20.81543,48.80109,48.80109,0,0,0,26.46,7.291q18.57715,0,31.39844-8.82032a50.72519,50.72519,0,0,0,18.69824-23.63769h28.459q-7.05615,26.58252-27.28321,41.9834-20.231,15.40722-50.80273,15.40527-23.521,0-41.62988-10.70117a72.46708,72.46708,0,0,1-27.98828-29.87012q-9.87745-19.16748-9.87793-43.86426,0-24.69581,9.87793-43.86474a73.28093,73.28093,0,0,1,27.98828-29.98731q18.10839-10.81567,41.62988-10.81933Q1673.48194,464.87061,1693.71191,480.39355Z" transform="translate(-28.02285 -302.31555)"/><path class="cls-1" d="M1846.82227,596.58105H1776.7334l-12.70117,35.98536h-28.69434l61.15137-163.46192h30.81152l60.916,163.46192h-28.69434Zm-7.52637-20.69726-27.51856-77.61524-27.51757,77.61524Z" transform="translate(-28.02285 -302.31555)"/></svg>